<svg width="114" height="15" viewBox="0 0 114 15" fill="none" xmlns="http://www.w3.org/2000/svg">
<path d="M0.72 11.5V10.652L2.272 10.284L2.032 10.636V1.196L2.32 1.564L0.72 1.228V0.379999L3.664 0.299999H11.728V1.148L10.176 1.548L10.416 1.196V10.636L10.176 10.284L11.728 10.652V11.5H7.472V10.652L9.008 10.284L8.784 10.636V1.116L9.056 1.5L3.392 1.516L3.664 1.1V10.636L3.424 10.284L4.976 10.652V11.5H0.72ZM18.1815 11.66C17.2322 11.66 16.3895 11.452 15.6535 11.036C14.9175 10.6093 14.3415 9.98 13.9255 9.148C13.5095 8.30533 13.3015 7.26533 13.3015 6.028C13.3015 5.04667 13.4295 4.188 13.6855 3.452C13.9522 2.716 14.3202 2.10267 14.7895 1.612C15.2588 1.12133 15.8028 0.753333 16.4215 0.507999C17.0508 0.262666 17.7282 0.139999 18.4535 0.139999C19.1682 0.139999 19.8295 0.257333 20.4375 0.492C21.0455 0.726666 21.5735 1.07867 22.0215 1.548C22.4695 2.00667 22.8162 2.588 23.0615 3.292C23.3068 3.98533 23.4295 4.79067 23.4295 5.708C23.4295 6.956 23.2002 8.028 22.7415 8.924C22.2935 9.80933 21.6748 10.4867 20.8855 10.956C20.0962 11.4253 19.1948 11.66 18.1815 11.66ZM18.2935 10.38C18.9122 10.38 19.4775 10.2253 19.9895 9.916C20.5015 9.60667 20.9068 9.116 21.2055 8.444C21.5148 7.76133 21.6695 6.876 21.6695 5.788C21.6695 4.75333 21.5255 3.916 21.2375 3.276C20.9602 2.636 20.5708 2.16667 20.0695 1.868C19.5788 1.56933 19.0188 1.42 18.3895 1.42C17.7708 1.42 17.2108 1.57467 16.7095 1.884C16.2082 2.18267 15.8082 2.66267 15.5095 3.324C15.2108 3.98533 15.0615 4.86533 15.0615 5.964C15.0615 6.99867 15.2002 7.84133 15.4775 8.492C15.7655 9.132 16.1495 9.60667 16.6295 9.916C17.1202 10.2253 17.6748 10.38 18.2935 10.38ZM26.0644 10.732C26.3844 10.4973 26.6617 10.204 26.8964 9.852C27.131 9.5 27.3284 9.07333 27.4884 8.572C27.659 8.06 27.787 7.45733 27.8724 6.764C27.9684 6.07067 28.0377 5.26533 28.0804 4.348C28.123 3.42 28.1444 2.364 28.1444 1.18L27.9204 1.516L31.6004 1.5L31.3284 1.116V10.732L31.6484 10.3H26.0644V10.732ZM24.9284 10.54L25.4404 10.3L24.1124 10.364L24.0804 14.412H25.0724L25.6804 11.34L25.5044 11.5H33.2644L33.0724 11.34L33.6644 14.412H34.6404V10.364L32.6884 10.3L32.9604 10.732V1.196L32.7044 1.548L34.2724 1.148V0.299999H28.1284L25.5524 0.379999V1.228L27.1844 1.564L26.8804 1.276C26.8697 2.47067 26.843 3.51067 26.8004 4.396C26.7577 5.28133 26.6884 6.044 26.5924 6.684C26.507 7.324 26.3897 7.87867 26.2404 8.348C26.1017 8.80667 25.9257 9.212 25.7124 9.564C25.499 9.916 25.2377 10.2413 24.9284 10.54ZM39.6891 7.324H38.2651L38.6171 7.052V10.636L38.3611 10.3L40.2971 10.652V11.5H35.6731V10.652L37.2571 10.284L36.9851 10.636V1.18L37.2891 1.548L35.6731 1.228V0.379999L38.6491 0.299999H40.3451C41.1878 0.299999 41.8811 0.443999 42.4251 0.731999C42.9691 1.02 43.3745 1.41467 43.6411 1.916C43.9078 2.41733 44.0411 2.99333 44.0411 3.644C44.0411 4.35867 43.8811 4.99333 43.5611 5.548C43.2411 6.10267 42.7558 6.54 42.1051 6.86C41.4651 7.16933 40.6598 7.324 39.6891 7.324ZM40.0891 1.5H38.3451L38.6171 1.212V6.396L38.2651 6.124H39.6891C40.5531 6.124 41.2145 5.90533 41.6731 5.468C42.1425 5.02 42.3771 4.42267 42.3771 3.676C42.3771 3.004 42.1798 2.476 41.7851 2.092C41.4011 1.69733 40.8358 1.5 40.0891 1.5ZM50.1815 11.66C49.2322 11.66 48.3895 11.452 47.6535 11.036C46.9175 10.6093 46.3415 9.98 45.9255 9.148C45.5095 8.30533 45.3015 7.26533 45.3015 6.028C45.3015 5.04667 45.4295 4.188 45.6855 3.452C45.9522 2.716 46.3202 2.10267 46.7895 1.612C47.2588 1.12133 47.8028 0.753333 48.4215 0.507999C49.0508 0.262666 49.7282 0.139999 50.4535 0.139999C51.1682 0.139999 51.8295 0.257333 52.4375 0.492C53.0455 0.726666 53.5735 1.07867 54.0215 1.548C54.4695 2.00667 54.8162 2.588 55.0615 3.292C55.3068 3.98533 55.4295 4.79067 55.4295 5.708C55.4295 6.956 55.2002 8.028 54.7415 8.924C54.2935 9.80933 53.6748 10.4867 52.8855 10.956C52.0962 11.4253 51.1948 11.66 50.1815 11.66ZM50.2935 10.38C50.9122 10.38 51.4775 10.2253 51.9895 9.916C52.5015 9.60667 52.9068 9.116 53.2055 8.444C53.5148 7.76133 53.6695 6.876 53.6695 5.788C53.6695 4.75333 53.5255 3.916 53.2375 3.276C52.9602 2.636 52.5708 2.16667 52.0695 1.868C51.5788 1.56933 51.0188 1.42 50.3895 1.42C49.7708 1.42 49.2108 1.57467 48.7095 1.884C48.2082 2.18267 47.8082 2.66267 47.5095 3.324C47.2108 3.98533 47.0615 4.86533 47.0615 5.964C47.0615 6.99867 47.2002 7.84133 47.4775 8.492C47.7655 9.132 48.1495 9.60667 48.6295 9.916C49.1202 10.2253 49.6748 10.38 50.2935 10.38ZM57.0169 11.5V10.652L58.5209 10.3L58.3289 10.572V1.212L58.5849 1.548L57.0169 1.228V0.379999L59.9289 0.299999H64.6969V3.196H63.7209L63.4329 1.308L63.7369 1.5H59.6889L59.9609 1.228V5.18L59.6569 4.876H61.8169C63.0755 4.876 64.0089 5.148 64.6169 5.692C65.2355 6.236 65.5449 7.004 65.5449 7.996C65.5449 8.7 65.3849 9.31867 65.0649 9.852C64.7449 10.3747 64.2595 10.78 63.6089 11.068C62.9689 11.356 62.1582 11.5 61.1769 11.5H57.0169ZM59.9609 10.572L59.6089 10.3H61.1609C62.0249 10.3 62.6862 10.1133 63.1449 9.74C63.6142 9.356 63.8489 8.796 63.8489 8.06C63.8489 7.37733 63.6569 6.86533 63.2729 6.524C62.8889 6.172 62.3182 5.996 61.5609 5.996H59.6889L59.9609 5.724V10.572ZM66.6419 11.5V10.652L68.1939 10.284L67.9539 10.636V1.196L68.2419 1.564L66.6419 1.228V0.379999L70.8979 0.299999V1.148L69.3139 1.564L69.5859 1.196V5.468L69.3139 5.196H75.2339L74.9459 5.468V1.196L75.2339 1.548L73.6339 1.228V0.379999L77.9059 0.299999V1.148L76.3379 1.548L76.5939 1.196V10.636L76.3379 10.284L77.9059 10.652V11.5H73.6339V10.652L75.1859 10.284L74.9459 10.636V6.124L75.2339 6.396H69.3139L69.5859 6.124V10.636L69.3459 10.284L70.8979 10.652V11.5H66.6419ZM86.5134 8.748H87.5054L87.4894 11.5H79.3294V10.652L80.8814 10.284L80.6414 10.636V1.212L80.8654 1.548L79.3294 1.228V0.379999L82.2414 0.299999H87.2974V2.94H86.3214L86.0174 1.26L86.3374 1.5H82.0014L82.2734 1.228V5.468L82.0014 5.196H86.1134V6.364H82.0014L82.2734 6.044V10.572L82.0014 10.3H86.5454L86.2094 10.572L86.5134 8.748ZM96.3884 8.748H97.3804L97.3644 11.5H89.2044V10.652L90.7564 10.284L90.5164 10.636V1.212L90.7404 1.548L89.2044 1.228V0.379999L92.1164 0.299999H97.1724V2.94H96.1964L95.8924 1.26L96.2124 1.5H91.8764L92.1484 1.228V5.468L91.8764 5.196H95.9884V6.364H91.8764L92.1484 6.044V10.572L91.8764 10.3H96.4204L96.0844 10.572L96.3884 8.748ZM112.331 5.516V5.948L108.315 1.644L109.003 0.971999L113.563 5.756V6.316L109.003 11.116L108.331 10.492L112.331 6.172V6.556H102.331V5.516H112.331Z" fill="#C56C1A"/>
</svg>
