<svg width="104" height="41" viewBox="0 0 104 41" fill="none" xmlns="http://www.w3.org/2000/svg">
<rect width="104" height="32.1277" fill="#746B60"/>
<rect width="52" height="32.1277" fill="white"/>
<path d="M0 40.7333L9.28571 32.1277H0V40.7333Z" fill="white"/>
<path d="M15.4676 22.22V21.618L16.7416 21.324L16.5596 21.534V12.336L16.7276 12.518L15.4676 12.252V11.65L17.4276 11.552L17.5676 12.77L17.4416 12.686C17.8709 12.2847 18.3002 11.986 18.7296 11.79C19.1589 11.5847 19.5836 11.482 20.0036 11.482C20.5262 11.482 20.9929 11.6267 21.4036 11.916C21.8236 12.2053 22.1549 12.6253 22.3976 13.176C22.6402 13.7173 22.7616 14.3847 22.7616 15.178C22.7616 16.0367 22.6122 16.76 22.3136 17.348C22.0242 17.936 21.6136 18.384 21.0816 18.692C20.5496 18.9907 19.9242 19.14 19.2056 19.14C18.9442 19.14 18.6736 19.1167 18.3936 19.07C18.1136 19.0233 17.8196 18.9627 17.5116 18.888L17.6796 18.734V21.534L17.5256 21.338L18.9676 21.618V22.22H15.4676ZM19.0796 18.3C19.9009 18.3 20.5262 18.034 20.9556 17.502C21.3849 16.97 21.5996 16.2327 21.5996 15.29C21.5996 14.674 21.5109 14.1467 21.3336 13.708C21.1656 13.2693 20.9322 12.9333 20.6336 12.7C20.3349 12.4573 19.9942 12.336 19.6116 12.336C19.2849 12.336 18.9442 12.4247 18.5896 12.602C18.2442 12.77 17.8942 13.0313 17.5396 13.386L17.6796 13.036V18.286L17.5256 18.034C18.0949 18.2113 18.6129 18.3 19.0796 18.3ZM23.086 22.276L23.184 21.45C23.296 21.4687 23.3986 21.4827 23.492 21.492C23.5946 21.5013 23.688 21.506 23.772 21.506C24.2293 21.506 24.598 21.3987 24.878 21.184C25.1673 20.9787 25.41 20.666 25.606 20.246C25.802 19.826 26.0026 19.3033 26.208 18.678L26.166 19.098L23.548 12.28L23.702 12.406L22.792 12.252V11.65L25.858 11.552V12.168L24.598 12.378L24.682 12.252L26.768 18.202L26.516 18.146L28.518 12.28L28.602 12.406L27.37 12.252V11.65L30.338 11.552V12.168L29.358 12.392L29.554 12.266L27.09 19.028C26.922 19.4947 26.7446 19.9287 26.558 20.33C26.3806 20.7313 26.1753 21.0813 25.942 21.38C25.7086 21.688 25.424 21.926 25.088 22.094C24.752 22.262 24.346 22.346 23.87 22.346C23.6553 22.346 23.394 22.3227 23.086 22.276ZM33.5407 19.126C32.9434 19.126 32.402 18.9813 31.9167 18.692C31.4407 18.3933 31.0627 17.964 30.7827 17.404C30.512 16.844 30.3767 16.172 30.3767 15.388C30.3767 14.7067 30.47 14.1233 30.6567 13.638C30.8527 13.1433 31.114 12.7373 31.4407 12.42C31.7674 12.1027 32.1407 11.8693 32.5607 11.72C32.99 11.5613 33.4334 11.482 33.8907 11.482C34.264 11.482 34.6607 11.5333 35.0807 11.636C35.51 11.7387 35.8834 11.8787 36.2007 12.056L36.1447 13.806H35.3887L35.2067 12.49L35.3187 12.616C35.0854 12.504 34.838 12.4247 34.5767 12.378C34.3154 12.3313 34.082 12.308 33.8767 12.308C33.3914 12.308 32.9714 12.434 32.6167 12.686C32.2714 12.9287 32.0054 13.274 31.8187 13.722C31.632 14.17 31.5387 14.702 31.5387 15.318C31.5387 15.9527 31.6367 16.4893 31.8327 16.928C32.0287 17.3667 32.2947 17.698 32.6307 17.922C32.976 18.146 33.3634 18.258 33.7927 18.258C34.1287 18.258 34.4834 18.188 34.8567 18.048C35.23 17.908 35.6174 17.698 36.0187 17.418L36.4107 18.034C35.9254 18.4073 35.44 18.6827 34.9547 18.86C34.4694 19.0373 33.998 19.126 33.5407 19.126Z" fill="black"/>
<path d="M69.976 19.126C69.3507 19.126 68.7954 18.986 68.31 18.706C67.834 18.4167 67.4607 17.9967 67.19 17.446C66.9194 16.8953 66.784 16.2233 66.784 15.43C66.784 14.618 66.924 13.918 67.204 13.33C67.484 12.742 67.8807 12.2893 68.394 11.972C68.9074 11.6453 69.5094 11.482 70.2 11.482C70.8534 11.482 71.39 11.622 71.81 11.902C72.2394 12.1727 72.5567 12.5507 72.762 13.036C72.9767 13.5213 73.084 14.0767 73.084 14.702C73.084 14.8047 73.0794 14.9073 73.07 15.01C73.0607 15.1127 73.0467 15.2387 73.028 15.388H67.638V14.59H72.048L71.922 14.674C71.9314 14.254 71.88 13.8667 71.768 13.512C71.656 13.1573 71.4647 12.8727 71.194 12.658C70.9234 12.4433 70.564 12.336 70.116 12.336C69.64 12.336 69.2387 12.462 68.912 12.714C68.5854 12.966 68.3427 13.3113 68.184 13.75C68.0254 14.1887 67.946 14.6973 67.946 15.276C67.946 15.892 68.0347 16.424 68.212 16.872C68.3894 17.3107 68.646 17.6513 68.982 17.894C69.3274 18.1367 69.7474 18.258 70.242 18.258C70.5874 18.258 70.9654 18.1927 71.376 18.062C71.7867 17.922 72.2114 17.712 72.65 17.432L73.056 18.062C72.5334 18.4167 72.0107 18.6827 71.488 18.86C70.9654 19.0373 70.4614 19.126 69.976 19.126ZM74.0203 19V18.398L75.2803 18.118L75.1123 18.328V12.308L75.2803 12.518L74.0203 12.252V11.65L75.9803 11.552L76.1343 12.924L75.9803 12.868C76.4469 12.392 76.9323 12.042 77.4363 11.818C77.9496 11.594 78.4349 11.482 78.8923 11.482C79.5083 11.482 80.0169 11.6733 80.4183 12.056C80.8289 12.4293 81.0296 13.0127 81.0203 13.806V18.328L80.8803 18.132L82.1123 18.398V19H78.8503V18.398L80.0683 18.132L79.9003 18.342V14.044C79.9003 13.4653 79.7696 13.0407 79.5083 12.77C79.2469 12.4993 78.8969 12.364 78.4583 12.364C78.1129 12.364 77.7349 12.4573 77.3243 12.644C76.9229 12.8307 76.5263 13.12 76.1343 13.512L76.2323 13.288V18.342L76.0923 18.146L77.2823 18.398V19H74.0203ZM85.7637 22.346C84.6717 22.346 83.855 22.1873 83.3137 21.87C82.7723 21.5527 82.5017 21.0953 82.5017 20.498C82.5017 20.078 82.6417 19.7047 82.9217 19.378C83.2017 19.0513 83.6123 18.7667 84.1537 18.524L84.1677 18.748C83.869 18.7293 83.6403 18.6687 83.4817 18.566C83.323 18.454 83.2437 18.3 83.2437 18.104C83.2437 18.0293 83.253 17.9547 83.2717 17.88C83.2903 17.8053 83.323 17.7027 83.3697 17.572C83.4257 17.432 83.505 17.25 83.6077 17.026C83.7197 16.7927 83.8597 16.4893 84.0277 16.116L84.0557 16.312C83.6543 16.0973 83.3463 15.808 83.1317 15.444C82.917 15.0707 82.8097 14.632 82.8097 14.128C82.8097 13.316 83.0757 12.672 83.6077 12.196C84.149 11.72 84.891 11.482 85.8337 11.482C86.4683 11.482 87.0143 11.594 87.4717 11.818L87.1637 11.748L89.3617 11.65L89.3757 12.322L88.0737 12.574L88.1717 12.406C88.3677 12.5927 88.517 12.8213 88.6197 13.092C88.7223 13.3627 88.7737 13.6707 88.7737 14.016C88.7737 14.8373 88.4983 15.486 87.9477 15.962C87.397 16.438 86.6643 16.676 85.7497 16.676C85.227 16.676 84.7463 16.5873 84.3077 16.41L84.5597 16.284L84.1957 18.118L83.9577 17.978H86.7017C87.5977 17.978 88.279 18.1553 88.7457 18.51C89.2123 18.8553 89.4457 19.3547 89.4457 20.008C89.4457 20.764 89.133 21.3427 88.5077 21.744C87.8917 22.1453 86.977 22.346 85.7637 22.346ZM85.8617 21.492C86.711 21.492 87.341 21.3753 87.7517 21.142C88.1623 20.9087 88.3677 20.5587 88.3677 20.092C88.3677 19.6813 88.2137 19.3687 87.9057 19.154C87.5977 18.9487 87.1357 18.846 86.5197 18.846H84.2937L84.6157 18.776C83.869 19.2427 83.4957 19.7467 83.4957 20.288C83.4957 20.6893 83.687 20.988 84.0697 21.184C84.4617 21.3893 85.059 21.492 85.8617 21.492ZM85.7497 15.892C86.347 15.892 86.8137 15.7333 87.1497 15.416C87.4857 15.0893 87.6537 14.632 87.6537 14.044C87.6537 13.456 87.495 13.0127 87.1777 12.714C86.8603 12.4153 86.4077 12.266 85.8197 12.266C85.2223 12.266 84.7603 12.4247 84.4337 12.742C84.107 13.05 83.9437 13.5027 83.9437 14.1C83.9437 14.6787 84.0977 15.122 84.4057 15.43C84.723 15.738 85.171 15.892 85.7497 15.892Z" fill="white"/>
</svg>
