<svg width="153" height="13" viewBox="0 0 153 13" fill="none" xmlns="http://www.w3.org/2000/svg">
<path d="M10.528 10.912L9.904 10.432L11.28 10.848V12H6.736V10.848L7.952 10.432L7.904 10.816L5.168 6.624L5.776 7.072H3.696L4.048 6.608V10.88L3.76 10.384L5.168 10.848V12H0.576V10.848L2 10.432L1.76 10.88V1.904L2 2.336L0.576 1.968V0.815999L5.168 0.735999V1.856L3.76 2.336L4.048 1.856V5.792L3.696 5.424H5.936L5.344 5.776L7.616 1.936L7.792 2.272L6.448 1.968V0.815999L10.768 0.735999V1.888L9.344 2.336L9.84 1.952L7.072 6.432V5.84L10.528 10.912ZM12.1048 12L12.5208 10.208C12.8514 10.2827 13.1394 10.3467 13.3848 10.4C13.6408 10.4427 13.8594 10.464 14.0408 10.464C14.4461 10.464 14.7608 10.3413 14.9848 10.096C15.2194 9.85067 15.4594 9.488 15.7048 9.008L15.4808 9.952L11.5768 1.968L12.1048 2.368L10.6968 1.968V0.815999L15.3848 0.735999V1.888L13.8168 2.336L14.0888 1.776L16.6008 7.68L16.2808 7.808L18.6488 1.904L18.8248 2.352L17.3688 1.968V0.815999L21.6088 0.735999V1.888L20.2008 2.32L20.7448 1.92L17.6408 9.168C17.3421 9.86133 17.0114 10.448 16.6488 10.928C16.2968 11.3973 15.8968 11.7493 15.4488 11.984C15.0008 12.2187 14.4941 12.336 13.9288 12.336C13.6621 12.336 13.3741 12.304 13.0648 12.24C12.7554 12.1867 12.4354 12.1067 12.1048 12ZM21.6548 12V10.848L23.1428 10.416L22.8388 10.88V1.92L23.2068 2.4L21.6548 1.968V0.815999L25.1268 0.735999H32.8868V1.888L31.3988 2.384L31.7188 1.904V10.88L31.3988 10.416L32.8868 10.848V12H28.2468V10.848L29.7188 10.416L29.4148 10.88V1.856L29.7828 2.384H24.7748L25.1268 1.856V10.88L24.8388 10.416L26.2948 10.848V12H21.6548ZM33.7254 12V10.848L35.2134 10.416L34.9094 10.88V1.92L35.2774 2.4L33.7254 1.968V0.815999L38.3654 0.735999V1.888L36.8454 2.4L37.1974 1.904V8.368L36.8454 8.224L42.1254 2.416L41.9334 2.944V1.92L42.2854 2.384L40.7654 1.968V0.815999L45.4054 0.735999V1.888L43.9174 2.384L44.2214 1.904V10.88L43.9174 10.416L45.4054 10.848V12H40.7654V10.848L42.2214 10.416L41.9334 10.88V4.336L42.2854 4.544L37.0214 10.336L37.1974 9.872V10.88L36.9094 10.416L38.3654 10.848V12H33.7254ZM47.7603 12V10.848L49.5363 10.4L49.1203 10.976V2.032L49.5843 2.384H46.9763L47.4883 1.936L47.0563 3.968H45.6963V0.735999H54.8483V3.968H53.4883L53.0883 2.032L53.5683 2.384H50.9603L51.4243 2.032V10.976L51.0243 10.4L52.7843 10.848V12H47.7603ZM55.1479 12V10.848L56.5719 10.432L56.3319 10.768V1.92L56.6519 2.368L55.1479 1.968V0.815999L59.7879 0.735999V1.888L58.2679 2.4L58.6199 1.904V5.488L58.2039 5.088H60.2039C61.5265 5.088 62.5025 5.37067 63.1319 5.936C63.7612 6.50133 64.0759 7.30667 64.0759 8.352C64.0759 9.07733 63.9105 9.712 63.5799 10.256C63.2599 10.8 62.7639 11.2267 62.0919 11.536C61.4305 11.8453 60.5825 12 59.5479 12H55.1479ZM58.6199 10.704L58.1559 10.352H59.5479C60.2625 10.352 60.8065 10.1973 61.1799 9.888C61.5532 9.568 61.7399 9.08267 61.7399 8.432C61.7399 7.80267 61.5799 7.344 61.2599 7.056C60.9505 6.768 60.4919 6.624 59.8839 6.624H58.2679L58.6199 6.272V10.704ZM67.2579 12V10.848L68.6819 10.432L68.4419 10.768V1.92L68.7619 2.368L67.2579 1.968V0.815999L70.6819 0.735999H75.3539V3.92H73.9939L73.7059 2.144L74.1059 2.384H70.3779L70.7299 2.032V5.616L70.3139 5.2H72.3139C73.6365 5.2 74.6125 5.48267 75.2419 6.048C75.8712 6.61333 76.1859 7.40267 76.1859 8.416C76.1859 9.10933 76.0205 9.728 75.6899 10.272C75.3699 10.816 74.8739 11.2427 74.2019 11.552C73.5405 11.8507 72.6925 12 71.6579 12H67.2579ZM70.7299 10.704L70.2659 10.352H71.6259C72.3405 10.352 72.8845 10.1973 73.2579 9.888C73.6312 9.57867 73.8179 9.10933 73.8179 8.48C73.8179 7.88267 73.6579 7.44533 73.3379 7.168C73.0285 6.88 72.5699 6.736 71.9619 6.736H70.3779L70.7299 6.384V10.704ZM76.6723 12V10.848L78.1603 10.416L77.8563 10.88V1.92L78.2243 2.4L76.6723 1.968V0.815999L81.3123 0.735999V1.888L79.7923 2.4L80.1443 1.904V8.368L79.7923 8.224L85.0723 2.416L84.8803 2.944V1.92L85.2323 2.384L83.7123 1.968V0.815999L88.3523 0.735999V1.888L86.8643 2.384L87.1683 1.904V10.88L86.8643 10.416L88.3523 10.848V12H83.7123V10.848L85.1683 10.416L84.8803 10.88V4.336L85.2323 4.544L79.9683 10.336L80.1443 9.872V10.88L79.8563 10.416L81.3123 10.848V12H76.6723ZM90.1244 12.224C89.719 12.224 89.239 12.144 88.6844 11.984L89.0364 9.888C89.2497 9.94133 89.4417 9.968 89.6124 9.968C89.9857 9.968 90.3004 9.856 90.5564 9.632C90.8124 9.39733 91.0204 9.07733 91.1804 8.672C91.351 8.256 91.479 7.78667 91.5644 7.264C91.6604 6.73067 91.7297 6.17067 91.7724 5.584C91.8257 4.98667 91.863 4.384 91.8844 3.776C91.9164 3.168 91.9377 2.58133 91.9484 2.016L92.2684 2.4L90.7804 1.968V0.815999L93.6604 0.735999H99.7404V1.888L98.2524 2.384L98.5724 1.904V10.88L98.2524 10.416L99.7404 10.848V12H94.9084V10.848L96.5724 10.416L96.2684 10.88V1.856L96.6364 2.384H93.3084L93.7404 1.968C93.687 2.8 93.639 3.632 93.5964 4.464C93.5537 5.296 93.4897 6.096 93.4044 6.864C93.3297 7.62133 93.223 8.32533 93.0844 8.976C92.9457 9.62667 92.7484 10.1973 92.4924 10.688C92.247 11.168 91.9324 11.5467 91.5484 11.824C91.1644 12.0907 90.6897 12.224 90.1244 12.224ZM107.587 8.992H108.947L108.915 12H100.579V10.848L102.067 10.416L101.763 10.88V1.92L102.051 2.368L100.579 1.968V0.815999L104.003 0.735999H108.739V3.616H107.379L107.059 2.064L107.491 2.384H103.699L104.051 2.032V5.824L103.699 5.472H107.491V7.056H103.699L104.051 6.656V10.704L103.699 10.352H107.683L107.251 10.704L107.587 8.992ZM111.223 12V10.848L112.999 10.4L112.583 10.976V2.032L113.047 2.384H110.439L110.951 1.936L110.519 3.968H109.159V0.735999H118.311V3.968H116.951L116.551 2.032L117.031 2.384H114.423L114.887 2.032V10.976L114.487 10.4L116.247 10.848V12H111.223ZM118.611 12V10.848L120.035 10.432L119.795 10.768V1.92L120.115 2.368L118.611 1.968V0.815999L123.251 0.735999V1.888L121.731 2.4L122.083 1.904V5.488L121.667 5.088H123.571C124.894 5.088 125.864 5.37067 126.483 5.936C127.112 6.50133 127.427 7.30667 127.427 8.352C127.427 9.07733 127.267 9.712 126.947 10.256C126.627 10.8 126.131 11.2267 125.459 11.536C124.787 11.8453 123.934 12 122.899 12H118.611ZM122.083 10.704L121.619 10.352H122.899C123.614 10.352 124.158 10.1973 124.531 9.888C124.904 9.568 125.091 9.08267 125.091 8.432C125.091 7.80267 124.931 7.344 124.611 7.056C124.302 6.768 123.843 6.624 123.235 6.624H121.731L122.083 6.272V10.704ZM132.483 1.888L131.075 2.368L131.315 2.016V10.768L131.075 10.432L132.483 10.848V12H127.843V10.848L129.235 10.448L129.011 10.768V2.016L129.315 2.368L127.843 1.968V0.815999L132.483 0.735999V1.888ZM150.283 5.744V6.416L146.635 2.432L147.787 1.296L152.427 6.176V7.072L147.787 11.936L146.683 10.88L150.283 6.928L150.299 7.504H141.035V5.744H150.283Z" fill="white"/>
</svg>
